<?xml version="1.0" encoding="utf-8"?>
<!-- Generator: Adobe Illustrator 19.2.1, SVG Export Plug-In . SVG Version: 6.00 Build 0)  -->
<svg version="1.1" id="Layer_1" xmlns="http://www.w3.org/2000/svg" xmlns:xlink="http://www.w3.org/1999/xlink" x="0px" y="0px"
	 viewBox="0 0 100 100" style="enable-background:new 0 0 100 100;" xml:space="preserve">
<g>
	<path d="M50,68.2c8.9,0,16.1-7.2,16.1-16.1V26.3c0-8.9-7.2-16.1-16.1-16.1s-16.1,7.2-16.1,16.1v25.8C33.9,60.9,41.1,68.2,50,68.2z
		 M50,61.7c-5.3,0-9.7-4.3-9.7-9.7v-3.2h19.3v3.2C59.7,57.4,55.3,61.7,50,61.7z M50,16.6c5.3,0,9.7,4.3,9.7,9.7v1.6H50
		c-0.9,0-1.6,0.7-1.6,1.6s0.7,1.6,1.6,1.6h9.7v3.2H50c-0.9,0-1.6,0.7-1.6,1.6c0,0.9,0.7,1.6,1.6,1.6h9.7v4.8H40.3V26.3
		C40.3,20.9,44.7,16.6,50,16.6z"/>
	<path d="M79,52.1c0-1.8-1.4-3.2-3.2-3.2s-3.2,1.4-3.2,3.2c0,12.4-10.1,22.6-22.6,22.6S27.4,64.5,27.4,52.1c0-1.8-1.4-3.2-3.2-3.2
		c-1.8,0-3.2,1.4-3.2,3.2C21,67,32.3,79.3,46.8,80.9v19.5c0,1.8,1.4,3.2,3.2,3.2s3.2-1.4,3.2-3.2V80.9C67.7,79.3,79,67,79,52.1z"/>
	<path d="M44.5,31.1c0.4,0,0.8-0.2,1.2-0.5c0.3-0.3,0.5-0.7,0.5-1.1c0-0.4-0.2-0.8-0.5-1.1c-0.6-0.6-1.7-0.6-2.3,0
		c-0.3,0.3-0.5,0.7-0.5,1.1c0,0.4,0.2,0.8,0.5,1.1C43.7,30.9,44.1,31.1,44.5,31.1z"/>
</g>
</svg>
